<svg xmlns="http://www.w3.org/2000/svg" width="1100" height="760" viewBox="0 0 1100 760" font-family="Inter, Segoe UI, Helvetica, Arial, sans-serif">
  <defs>
    <marker id="arr" markerWidth="9" markerHeight="9" refX="7" refY="3" orient="auto" markerUnits="strokeWidth">
      <path d="M0,0 L7,3 L0,6 Z" fill="#475569"/>
    </marker>
    <marker id="arrW" markerWidth="9" markerHeight="9" refX="7" refY="3" orient="auto" markerUnits="strokeWidth">
      <path d="M0,0 L7,3 L0,6 Z" fill="#ffffff"/>
    </marker>
    <style>
      .t{fill:#0f172a} .sub{fill:#64748b} .wt{fill:#fff}
      .lbl{fill:#475569;font-size:13px} .node{font-size:16px;font-weight:600}
    </style>
  </defs>

  <rect width="1100" height="760" fill="#f8fafc"/>

  <!-- Title -->
  <text x="40" y="50" class="t" font-size="30" font-weight="800">OpenPathway — Skill-Centered Recommendation Architecture</text>
  <text x="40" y="78" class="sub" font-size="16">Everything joins on one key — the Skill graph. Recommendation = traversing it.</text>

  <!-- ===== Pipeline band ===== -->
  <text x="40" y="120" class="t" font-size="15" font-weight="700" letter-spacing="1">PIPELINE</text>
  <g>
    <!-- 5 stages -->
    <g>
      <rect x="40"  y="135" width="180" height="64" rx="10" fill="#1e293b"/>
      <text x="130" y="162" text-anchor="middle" class="wt node">Harvest</text>
      <text x="130" y="184" text-anchor="middle" fill="#cbd5e1" font-size="12">Credly · Badgr · NetLearning</text>
    </g>
    <g>
      <rect x="248" y="135" width="180" height="64" rx="10" fill="#1e293b"/>
      <text x="338" y="162" text-anchor="middle" class="wt node">Normalize</text>
      <text x="338" y="180" text-anchor="middle" fill="#cbd5e1" font-size="12">surface → canonical skill</text>
      <text x="338" y="195" text-anchor="middle" fill="#7dd3fc" font-size="10">(taxonomy pluggable: ESCO/O*NET/…)</text>
    </g>
    <g>
      <rect x="456" y="135" width="180" height="64" rx="10" fill="#0ea5e9"/>
      <text x="546" y="162" text-anchor="middle" class="wt node">Graph</text>
      <text x="546" y="184" text-anchor="middle" fill="#e0f2fe" font-size="12">Neo4j knowledge graph</text>
    </g>
    <g>
      <rect x="664" y="135" width="180" height="64" rx="10" fill="#1e293b"/>
      <text x="754" y="162" text-anchor="middle" class="wt node">Recommend</text>
      <text x="754" y="184" text-anchor="middle" fill="#cbd5e1" font-size="12">traverse + similarity + gap</text>
    </g>
    <g>
      <rect x="872" y="135" width="188" height="64" rx="10" fill="#1e293b"/>
      <text x="966" y="158" text-anchor="middle" class="wt node">Serve (LLM)</text>
      <text x="966" y="180" text-anchor="middle" fill="#cbd5e1" font-size="12">tag · explain · DTO+verify</text>
    </g>
    <!-- arrows -->
    <line x1="220" y1="167" x2="246" y2="167" stroke="#475569" stroke-width="2.5" marker-end="url(#arr)"/>
    <line x1="428" y1="167" x2="454" y2="167" stroke="#475569" stroke-width="2.5" marker-end="url(#arr)"/>
    <line x1="636" y1="167" x2="662" y2="167" stroke="#475569" stroke-width="2.5" marker-end="url(#arr)"/>
    <line x1="844" y1="167" x2="870" y2="167" stroke="#475569" stroke-width="2.5" marker-end="url(#arr)"/>
  </g>

  <!-- ===== Skill-pivot graph ===== -->
  <text x="40" y="250" class="t" font-size="15" font-weight="700" letter-spacing="1">CORE DATA MODEL — Skill is the universal join key</text>

  <!-- edges (drawn before nodes) -->
  <!-- Course -> Skill (TEACHES) -->
  <line x1="250" y1="350" x2="487" y2="430" stroke="#94a3b8" stroke-width="2.5" marker-end="url(#arr)"/>
  <text x="320" y="378" class="lbl" transform="rotate(18 320 378)">TEACHES</text>
  <!-- Badge -> Skill (VALIDATES) -->
  <line x1="250" y1="560" x2="487" y2="470" stroke="#94a3b8" stroke-width="2.5" marker-end="url(#arr)"/>
  <text x="318" y="540" class="lbl" transform="rotate(-20 318 540)">VALIDATES</text>
  <!-- Occupation -> Skill (REQUIRES) -->
  <line x1="850" y1="410" x2="615" y2="440" stroke="#94a3b8" stroke-width="2.5" marker-end="url(#arr)"/>
  <text x="690" y="408" class="lbl">REQUIRES</text>
  <!-- Person -> Skill (EARNED/HAS) -->
  <line x1="550" y1="620" x2="550" y2="490" stroke="#94a3b8" stroke-width="2.5" marker-end="url(#arr)"/>
  <text x="560" y="560" class="lbl">EARNED → HAS</text>

  <!-- center Skill -->
  <circle cx="550" cy="450" r="64" fill="#0ea5e9"/>
  <text x="550" y="445" text-anchor="middle" class="wt" font-size="22" font-weight="800">Skill</text>
  <text x="550" y="468" text-anchor="middle" fill="#e0f2fe" font-size="12">canonical (normalized)</text>

  <!-- Course -->
  <rect x="120" y="312" width="160" height="64" rx="10" fill="#fff" stroke="#0ea5e9" stroke-width="2"/>
  <text x="200" y="340" text-anchor="middle" class="t node">Course</text>
  <text x="200" y="361" text-anchor="middle" class="sub" font-size="12">Coursera · MOOC</text>

  <!-- Badge -->
  <rect x="120" y="528" width="160" height="64" rx="10" fill="#fff" stroke="#0ea5e9" stroke-width="2"/>
  <text x="200" y="556" text-anchor="middle" class="t node">Badge</text>
  <text x="200" y="577" text-anchor="middle" class="sub" font-size="12">credential · Open Badge</text>

  <!-- Occupation -->
  <rect x="850" y="378" width="170" height="64" rx="10" fill="#fff" stroke="#0ea5e9" stroke-width="2"/>
  <text x="935" y="406" text-anchor="middle" class="t node">Occupation</text>
  <text x="935" y="427" text-anchor="middle" class="sub" font-size="12">career goal</text>

  <!-- Person -->
  <rect x="470" y="624" width="160" height="60" rx="10" fill="#fff" stroke="#cbd5e1" stroke-width="2"/>
  <text x="550" y="650" text-anchor="middle" class="t node">Person</text>
  <text x="550" y="670" text-anchor="middle" class="sub" font-size="12">learner</text>

  <!-- ===== The query / output callout ===== -->
  <rect x="700" y="500" width="360" height="196" rx="12" fill="#ecfdf5" stroke="#10b981" stroke-width="2"/>
  <text x="720" y="530" class="t" font-size="15" font-weight="700">The recommendation = one path</text>
  <text x="720" y="558" fill="#065f46" font-size="14" font-weight="600">Occupation ─REQUIRES→ Skill</text>
  <text x="740" y="582" fill="#065f46" font-size="14" font-weight="600">Skill ←TEACHES─ Course</text>
  <text x="740" y="606" fill="#065f46" font-size="14" font-weight="600">Skill ←VALIDATES─ Badge</text>
  <text x="720" y="640" class="sub" font-size="13">⇒ "to reach this job, take these</text>
  <text x="720" y="660" class="sub" font-size="13">courses &amp; earn these badges, in order."</text>
  <text x="720" y="684" fill="#047857" font-size="12" font-style="italic">The graph path IS the explanation.</text>

  <!-- footer principles -->
  <text x="40" y="726" class="sub" font-size="13">① Skill = universal join key   ② Skill normalization is the moat — the taxonomy itself is a commodity   ③ Graph path = explainable reason   ④ LLM tags &amp; explains — the graph decides</text>
</svg>
